<svg xmlns="http://www.w3.org/2000/svg" width="505.32" height="470.46" viewBox="0 0 505.32 470.46"><title>sb2</title><path d="M185,10.21C237.52-7.33,295.49-.62,354.2,17.79s118,48.16,140.43,96S502.36,227.17,468,266.1s-88.63,51.2-147.1,93S199.34,471.86,145.31,470.44,46.16,395,30,323A286.15,286.15,0,0,1,55.9,125.26C85.56,69.47,132.47,27.75,185,10.21Z" fill="#d6d6e5"/><path d="M77.84,344.21c-42.2-26.4-80.5-72.3-77.7-115.5s46.86-83.35,89-117.1,82.5-60.7,131.4-69.3,106.4,1.2,146.8,34.9,63.4,91.2,66.6,151.9S420.34,353.71,380,380s-104.2,15.1-159.1,6.2S120,370.51,77.84,344.21Z" fill="#a2a1bc"/><path d="M91.17,324.06c-36.11-24.46-44.08-61.64-40.26-99.38s19.61-75.75,57.54-103.92,76.38-19.1,119.46-25.08,90.91-27,125.22,3.8,52.61,81.88,53.48,135.12S372,318.94,335.91,340.68s-73,34.24-120.78,24.7S127.28,348.43,91.17,324.06Z" fill="#6c6992"/><path d="M109.06,309c-31-21-10.43-46.39-7.15-78.77s-10.57-71.49,22-95.66,69.05,3.26,106-1.87,74.48-42.8,103.91-16.39S379,186.53,379.71,232.22,339.9,278,308.91,296.68s-52.5,55.93-93.5,47.75S140,329.89,109.06,309Z" fill="#514d7d"/></svg>