<svg xmlns="http://www.w3.org/2000/svg" width="434.33" height="357.01" viewBox="0 0 434.33 357.01"><title>sbg</title><path d="M77.84,304.85c-42.2-26.4-80.5-72.3-77.7-115.5S47,106,89.14,72.25s82.5-60.7,131.4-69.3,106.4,1.2,146.8,34.9,63.4,91.2,66.6,151.9-13.6,124.6-53.9,150.9-104.2,15.1-159.1,6.2S120,331.15,77.84,304.85Z" fill="#e8e8f1"/><path d="M91.17,284.7c-36.11-24.46-44.08-61.64-40.26-99.38S70.52,109.57,108.45,81.4s76.38-19.1,119.46-25.08,90.91-27,125.22,3.8S405.74,142,406.61,195.24,372,279.58,335.91,301.32s-73,34.24-120.78,24.7S127.28,309.07,91.17,284.7Z" fill="#d9d8e7"/><path d="M109.06,269.62c-31-21-10.43-46.39-7.15-78.77s-10.57-71.49,22-95.66,69.05,3.26,106-1.87,74.48-42.8,103.91-16.39S379,147.17,379.71,192.86s-39.81,45.81-70.8,64.46-52.5,55.93-93.5,47.75S140,290.53,109.06,269.62Z" fill="#cbcadc"/></svg>