<svg xmlns="http://www.w3.org/2000/svg" width="487.77" height="427.76" viewBox="0 0 487.77 427.76"><title>sbg3</title><path d="M216.42,35.83C227.7,17.77,244.29,4.07,264.94,1c20.41-3.62,44.87,3.35,66.64,14.86,22.68,11.06,41.81,26,61.32,38,19.35,12.82,39.1,22.72,59.62,42.4,19.36,19.07,36.47,55.43,35.18,97.39-.31,41.42-19,88.44-48.74,116.5-29.5,29-66.68,42.7-100.56,47.92-34.2,5.51-65.11,2.51-89.31,4.54-25.75,1.12-38.45,14.68-56.64,34.21-17.82,17.88-41.14,41.73-79.57,25.68-38.34-14.38-72-60.53-87.34-92-16.62-33.94-14.91-53.19-12.11-70.63,4-15.48,14.44-34.28,33.94-55.48,19-20.95,47-44.28,74-63,25.23-18.12,46.05-32.58,60.27-50C196.4,74.3,204.53,54.29,216.42,35.83Z" fill="#d6d6e5"/><path d="M57.29,258.79c-14.44-7.92-29.76-9.58-42.17-12.22-11.89-2.77-20.87-6.52-10.7-21.73C13.78,210.51,43.09,188.07,74,171c31.25-17.7,64.14-30,87.82-39.38,48.65-17.15,67.3-38.69,95.63-54.28,13.88-6.91,30.84-9.33,47.17-3,16.32,6,32,20.84,42.88,41.37,21,42.37,30.64,98.84,33.47,162.47,1.23,64.08-14.5,130.89-52.9,137.65-39.83,8.43-116.76-44.47-162.32-82.3C119.17,296.83,87,273.67,57.29,258.79Z" fill="#a2a1bc"/><path d="M78.71,243.15C56.79,230.06,60.55,217.21,81.76,195c19.8-20.91,56.91-44.5,97.8-57.22,39.34-14,63.39-1.4,89.08,1.08,24.75,3.18,51.93-25.27,67.84,10.6,14.24,36.32,15.55,87.41,8.8,137.75-6.28,52.29-51,70.15-84.57,67.44-33-.95-63.56-12.25-100.52-45.34C125.16,277,100.35,257.92,78.71,243.15Z" fill="#6c6992"/><path d="M101.19,233c-16.63-13.18,14-27.24,33.06-42.47,18.77-14.56,22-33.82,56.47-43.44,33.74-10,50.86,16.18,71.53,23.53,10.88,3.48,23.28-1.66,34.13-6.42,10.87-4.35,20.2-8.32,25.36,7.18,9.63,30.27,5.84,73.39-5.11,112.29-10.26,40.14-51.2,27-78.49,22.74-28.41-4.18-47.71,11-75.36-15.58C136.49,264.12,116.76,247.94,101.19,233Z" fill="#514d7d"/></svg>