<?xml version="1.0" encoding="utf-8"?>
<!-- Generator: Adobe Illustrator 22.0.1, SVG Export Plug-In . SVG Version: 6.00 Build 0)  -->
<svg version="1.1" id="Layer_1" xmlns="http://www.w3.org/2000/svg" xmlns:xlink="http://www.w3.org/1999/xlink" x="0px" y="0px"
	 viewBox="0 0 2058.2 2210.7" style="enable-background:new 0 0 2058.2 2210.7;" xml:space="preserve">
<style type="text/css">
	.st0{fill:#FFF3BE;}
	.st1{fill:#6C6992;}
	.st2{fill:#E7F2FF;}
	.st3{fill:#353267;}
	.st4{fill:#1A1851;}
	.st5{fill:#CBCADC;}
	.st6{fill:#FFC0CB;}
</style>
<title>sbg5</title>
<title>s2</title>
<path class="st0" d="M1808.7,1370c45.7,136.9,28.2,288-19.8,441.1s-125.5,307.6-250.2,366s-295.6,20.2-397.1-69.5
	s-133.5-231-242.3-383.5s-294-316.8-290.3-457.6c3.7-140.9,196.7-258.4,384.4-300.6c174.3-40,357.2-16,515.4,67.5
	C1654.3,1110.8,1763,1233.1,1808.7,1370z"/>
<path class="st1" d="M938.1,1090.7c68.8-110,188.5-209.8,301.1-202.5s217.3,122.1,305.2,232c88,109.9,158.2,215,180.6,342.5
	s-3.1,277.3-91,382.7c-87.8,105.3-237.7,165.3-395.9,173.6s-324.8-35.5-393.3-140.5s-39.4-271.6-16.2-414.7
	S869.6,1200.6,938.1,1090.7z"/>
<path class="st2" d="M990.6,1125.5c63.8-94.1,160.7-114.9,259.1-104.9c98.4,10,197.4,51.1,270.9,150
	c73.4,98.9,49.8,199.1,65.4,311.4c15.6,112.3,70.4,237-9.9,326.4s-213.4,137.1-352.2,139.4c-138.8,2.3-219.9-90.2-276.5-184.3
	c-56.7-94.1-89.2-190.3-64.4-314.8S927.1,1219.6,990.6,1125.5z"/>
<path class="st3" d="M1030,1150.7c54.7-83.3,120.9-28,205.3-19.2s186.3-28.4,249.4,59.1c63,87.5-8.5,185.5,4.9,284.7
	c13.4,99.2,111.6,200,42.7,279.1c-68.8,79-183.1,121.3-302.2,123.3c-119.1,1.9-119.4-106.9-168-190.2
	c-48.6-83.2-145.8-141-124.5-251.1S975.5,1233.8,1030,1150.7z"/>
<path class="st4" d="M1362.8,1522.2c-10.2,73.3,5.3,168.5-27.1,194.1c-32.4,25.6-112.8-18.7-180-81.7
	c-67.2-63-121.5-144.6-106.7-213.9c14.7-69.4,98.3-126.4,175.6-136.8c77.3-10.4,148.5,26,166.2,69.8
	C1408.4,1397.4,1372.9,1449,1362.8,1522.2z"/>
<path class="st5" d="M793.5,856.6c-12.1-23.9-12.9-52.1-8.3-81.5s14.8-59.9,36.1-74s53.7-11.7,74.8,2.1
	c21.1,13.7,30.7,38.8,54.8,63.9c24.1,25.1,62.5,50.3,65.6,76.2s-29.2,52.8-62.5,65.6c-30.9,12-65.2,12.6-96.5,1.5
	C828.9,900.1,805.6,880.5,793.5,856.6z"/>
<path class="st6" d="M981,678.5c-12.1-23.9-12.9-52.1-8.3-81.5s14.8-59.9,36.1-74c21.3-14.1,53.7-11.7,74.8,2.1
	c21.1,13.7,30.7,38.8,54.8,63.9c24.1,25.1,62.5,50.3,65.6,76.2s-29.2,52.8-62.5,65.6c-30.9,12-65.2,12.6-96.5,1.5
	C1016.3,721.9,993.1,702.4,981,678.5z"/>
<path class="st6" d="M769.7,1094.2c27-28.7,49.7-74.8,71.6-75.9c22-1.1,43.2,42.9,53,91c9.8,48.1,8.2,100.3-19.6,125.9
	c-27.8,25.6-81.7,24.6-118.5,5.3c-36.8-19.3-56.5-57.1-50.6-81.6C711.4,1134.4,742.7,1122.9,769.7,1094.2z"/>
<path class="st2" d="M985.9,406c-32.5,27.9-80.1,47.5-114.8,34.1s-56.4-60-73.3-103.2c-16.8-43.2-28.6-83.4-23.1-125.7
	s28.4-87.1,66.4-111.6S932.3,71,983,84s98.8,43.2,110.1,83.1c11.2,39.8-14.4,89.5-35.9,132.3S1018.3,378.1,985.9,406z"/>
<path class="st2" d="M1246.8,1557.2c-16.6,14.2-40.9,24.2-58.6,17.4c-17.7-6.8-28.8-30.6-37.4-52.7c-8.6-22.1-14.6-42.5-11.8-64.2
	c2.8-21.6,14.5-44.4,33.9-56.9c19.4-12.5,46.5-14.6,72.4-8c25.9,6.6,50.4,22.1,56.2,42.4c5.7,20.3-7.4,45.7-18.3,67.5
	C1272.2,1524.6,1263.3,1543,1246.8,1557.2z"/>
</svg>
