<svg xmlns="http://www.w3.org/2000/svg" width="1872.47" height="2261.28" viewBox="0 0 1872.47 2261.28"><title>sbg6</title><path d="M1691.55,2029c-82.11,119-178.68,183.32-279.75,212.45C1310,2270.6,1203.62,2264.59,1084,2243c-118.18-23.07-252.5-61-391.87-132.16-138.28-69.49-281.6-172.22-392.78-286.22C186.44,1708.48,107.9,1604,58.07,1529c-49.2-77.49-69.68-125.55-51.55-185.19,18.33-56.09,79.27-120.73,151-190.27,71.8-70.07,154.37-145,217.55-234.06C437.68,828.3,483,722.3,520.52,601.89c39-119.33,70.13-253.06,138-374.76C726.62,108,847,15.36,984.46,2.76c137.63-16.93,279.43,45.8,386.89,137.18,101.79,85.82,182.75,192,259.76,324,75.53,132.55,147.1,290.88,195.74,493.42,44.35,183.59,58.4,395.26,33.09,587.9C1835.91,1738.3,1772.52,1912.27,1691.55,2029Z" fill="#d6d6e5"/><path d="M1185.17,310.1c90.32-53.22,189-92.07,280.28-102.77,91.11-10.19,174.71,7.76,232.22,80.16,56.58,72,84.38,209.35,85.86,375.26,2.15,165.23-22,359-54,528-61.77,339.7-153.35,609.26-309.5,743.24-157.15,135-360.35,124.67-589.69-20.8-114-71.54-229.35-178.22-329.68-280.4-101.2-102.9-187.39-201.31-263.12-272.89-74-75-144-121.37-183.65-169.69-39.36-47.68-48.47-97.35,6.78-164.37,53.52-65.59,163.58-136.23,276.79-195C452,770.74,569.65,722.48,668.55,668.53,767.68,615.42,851,554.75,933,491.32,1014.78,428.35,1095.27,362.61,1185.17,310.1Z" fill="#a2a1bc"/><path d="M1191.27,442.53c157.8-73.22,262.17,9.76,342.88,157.13,40.13,73.32,75.78,161.18,93.8,270.15,17.88,108.16,18.13,237.43-15.67,375.11-33.23,137.47-99.69,226.17-172.47,288.75-73.13,63.12-152.57,100.11-220,146.75-136.44,91.5-220.38,232.29-412.41,105.74-95.35-62.51-188.53-150.92-269.66-236.91-81.59-86.6-151.13-170.78-209.95-239-58.94-67.69-75.65-119-63.63-172.91,11.57-52.8,51.88-108.16,96.67-158.87C450.1,875.83,561.13,787.4,734.26,705.61,906.42,625.64,1033.62,514.24,1191.27,442.53Z" fill="#6c6992"/><path d="M1169.21,568.3c135.91-50.87,123.32,120.89,178.06,247.85,28.11,64.3,77.88,115.83,117.86,181.45,39.24,65.22,68.7,144.52,39.12,254.87-29.15,109.25-102,160-177.22,189.08-75.93,29.67-154.24,37.74-210.8,74.67-57,36.22-92.15,103.25-131.4,150.75-39.49,47.1-83.11,74.65-162.63,22.84-78.75-50.64-154.89-122.12-221.47-194.44-66.83-72.73-124.1-146.31-170.85-210.6-47.45-62.6-34.51-101.65-.2-139.16,34.24-36.95,89.85-72.35,125.87-114.67,72.91-87.42,74.17-207.18,221.5-270.2C923.27,699.18,1035,615.79,1169.21,568.3Z" fill="#514d7d"/></svg>