<svg xmlns="http://www.w3.org/2000/svg" width="1226.32" height="2128.25" viewBox="0 0 1226.32 2128.25"><title>sbg7</title><path d="M1199.7,1293.28c45.72,136.92,28.23,288-19.76,441.07s-125.53,307.65-250.21,366-295.56,20.17-397.05-69.47-133.47-231-242.34-383.46S-3.65,1330.69.05,1189.83s196.69-258.41,384.41-300.6a746,746,0,0,1,515.35,67.54C1045.24,1034.08,1154,1156.36,1199.7,1293.28Z" fill="#fff3be"/><path d="M329.08,1014C397.9,904,517.54,804.14,630.15,811.44s217.26,122.15,305.23,232,158.23,215,180.64,342.51-3.12,277.35-91,382.65-237.73,165.27-395.94,173.61-324.79-35.45-393.35-140.5S196.4,1530.1,219.6,1387,260.52,1123.88,329.08,1014Z" fill="#6c6992"/><path d="M381.6,1048.73c63.75-94.14,160.68-114.9,259-105s197.45,51.12,270.88,150,49.79,199.1,65.38,311.39,70.38,237-9.91,326.41S753.57,1868.7,614.79,1871s-219.85-90.22-276.51-184.29-89.22-190.3-64.39-314.85S318.08,1142.85,381.6,1048.73Z" fill="#e7f2ff"/><path d="M420.91,1073.93c54.74-83.26,120.93-28,205.33-19.2s186.34-28.39,249.35,59.09-8.5,185.45,4.88,284.7,111.56,200,42.72,279.08S740.1,1799,621,1800.85s-119.41-106.92-168-190.16-145.8-141-124.47-251.12S366.43,1157,420.91,1073.93Z" fill="#353267"/><path d="M753.81,1445.52c-10.16,73.33,5.32,168.5-27.1,194s-112.76-18.69-180-81.71S425.22,1413.31,440,1343.93s98.28-126.43,175.59-136.82,148.47,26,166.15,69.78S763.87,1372.28,753.81,1445.52Z" fill="#1a1851"/><path d="M184.51,779.9c-12.09-23.91-12.94-52.14-8.25-81.54s14.76-59.88,36.09-74,53.74-11.67,74.8,2.06,30.73,38.84,54.83,63.9,62.53,50.26,65.65,76.23-29.17,52.76-62.51,65.56a138.47,138.47,0,0,1-96.47,1.48C219.86,823.35,196.59,803.82,184.51,779.9Z" fill="#cbcadc"/><path d="M371.93,601.74c-12.08-23.92-12.94-52.14-8.25-81.54s14.77-59.89,36.09-74,53.75-11.66,74.8,2.06,30.73,38.84,54.84,63.9,62.53,50.26,65.64,76.23-29.16,52.76-62.5,65.56a138.42,138.42,0,0,1-96.47,1.48C407.28,645.18,384,625.65,371.93,601.74Z" fill="pink"/><path d="M160.65,1017.48c27-28.72,49.68-74.84,71.65-75.94s43.22,42.91,53,91,8.17,100.27-19.64,125.87-81.7,24.59-118.49,5.25-56.49-57.08-50.65-81.58S133.68,1046.18,160.65,1017.48Z" fill="pink"/><path d="M376.84,329.3C344.3,357.16,296.75,376.8,262,363.39s-56.42-60-73.26-103.23-28.62-83.37-23.1-125.74S194,47.35,232.07,22.85,323.25-5.76,374,7.24,472.77,50.49,484,90.34s-14.41,89.45-35.85,132.25S409.3,301.41,376.84,329.3Z" fill="#e7f2ff"/><path d="M637.71,1480.5c-16.61,14.22-40.87,24.25-58.61,17.4s-28.8-30.61-37.39-52.68-14.61-42.55-11.79-64.17,14.48-44.44,33.91-57,46.53-14.6,72.41-8,50.43,22.07,56.16,42.41-7.35,45.65-18.29,67.49S654.27,1466.27,637.71,1480.5Z" fill="#e7f2ff"/></svg>